<svg width="280" height="140" viewBox="0 0 280 140" fill="none" xmlns="http://www.w3.org/2000/svg">
<rect width="280" height="140" fill="white"/>
<rect width="280" height="140" fill="#F4F5F7"/>
<g filter="url(#filter0_dd)">
<rect x="30" y="58" width="220" height="24" rx="4" fill="#4B5563"/>
</g>
<path d="M242 68L238 72M242 72C239.657 69.6569 238 68 238 68" stroke="white" stroke-linecap="round"/>
<rect x="56" y="69" width="104" height="2" rx="1" fill="#9FA6B2"/>
<path fill-rule="evenodd" clip-rule="evenodd" d="M42.1032 65.152C42.7168 64.0301 44.2872 64.0301 44.9007 65.152L49.3785 73.34C49.9803 74.4403 49.2072 75.8 47.9798 75.8H39.0242C37.7967 75.8 37.0237 74.4403 37.6254 73.34L42.1032 65.152ZM44.3041 73.3244C44.3041 73.7802 43.9449 74.1497 43.5017 74.1497C43.0585 74.1497 42.6993 73.7802 42.6993 73.3244C42.6993 72.8686 43.0585 72.499 43.5017 72.499C43.9449 72.499 44.3041 72.8686 44.3041 73.3244ZM43.5017 67.5466C43.0585 67.5466 42.6993 67.9059 42.6993 68.349V70.0456C42.6993 70.4888 43.0585 70.848 43.5017 70.848C43.9449 70.848 44.3041 70.4888 44.3041 70.0456V68.349C44.3041 67.9059 43.9449 67.5466 43.5017 67.5466Z" fill="#D2D6DC"/>
<defs>
<filter id="filter0_dd" x="24" y="55" width="232" height="36" filterUnits="userSpaceOnUse" color-interpolation-filters="sRGB">
<feFlood flood-opacity="0" result="BackgroundImageFix"/>
<feColorMatrix in="SourceAlpha" type="matrix" values="0 0 0 0 0 0 0 0 0 0 0 0 0 0 0 0 0 0 127 0"/>
<feOffset dy="2"/>
<feGaussianBlur stdDeviation="2"/>
<feColorMatrix type="matrix" values="0 0 0 0 0 0 0 0 0 0 0 0 0 0 0 0 0 0 0.06 0"/>
<feBlend mode="normal" in2="BackgroundImageFix" result="effect1_dropShadow"/>
<feColorMatrix in="SourceAlpha" type="matrix" values="0 0 0 0 0 0 0 0 0 0 0 0 0 0 0 0 0 0 127 0"/>
<feOffset dy="3"/>
<feGaussianBlur stdDeviation="3"/>
<feColorMatrix type="matrix" values="0 0 0 0 0 0 0 0 0 0 0 0 0 0 0 0 0 0 0.1 0"/>
<feBlend mode="normal" in2="effect1_dropShadow" result="effect2_dropShadow"/>
<feBlend mode="normal" in="SourceGraphic" in2="effect2_dropShadow" result="shape"/>
</filter>
</defs>
</svg>
