<svg width="280" height="140" viewBox="0 0 280 140" fill="none" xmlns="http://www.w3.org/2000/svg">
  <rect width="280" height="140" fill="white" />
  <rect width="280" height="140" fill="#F4F5F7" />
  <g filter="url(#filter0_d)">
    <rect x="50" y="60.5" width="181" height="24" rx="6" fill="white" />
    <rect x="49.5" y="60" width="182" height="25" rx="6.5" stroke="black" stroke-opacity="0.04" />
  </g>
  <path
    d="M79.7071 66.7929C79.3166 66.4024 78.6834 66.4024 78.2929 66.7929L73.2929 71.7929C72.9024 72.1834 72.9024 72.8166 73.2929 73.2071C73.6834 73.5976 74.3166 73.5976 74.7071 73.2071L75 72.9142V77.5002C75 78.0524 75.4477 78.5002 76 78.5002H77C77.5523 78.5002 78 78.0524 78 77.5002V75.5002H80V77.5002C80 78.0524 80.4477 78.5002 81 78.5002H82C82.5523 78.5002 83 78.0524 83 77.5002V72.9142L83.2929 73.2071C83.6834 73.5976 84.3166 73.5976 84.7071 73.2071C85.0976 72.8166 85.0976 72.1834 84.7071 71.7929L79.7071 66.7929Z"
    fill="#9FA6B2" />
  <rect x="128" y="71.5" width="24" height="2" rx="1" fill="#9FA6B2" />
  <rect x="191" y="71.5" width="24" height="2" rx="1" fill="#9FA6B2" />
  <path d="M166 60L174 72.5L166 85" stroke="#E5E7EB" />
  <path d="M102 60L110 72.5L102 85" stroke="#E5E7EB" />
  <defs>
    <filter id="filter0_d" x="47" y="58.5" width="187" height="30" filterUnits="userSpaceOnUse"
      color-interpolation-filters="sRGB">
      <feFlood flood-opacity="0" result="BackgroundImageFix" />
      <feColorMatrix in="SourceAlpha" type="matrix" values="0 0 0 0 0 0 0 0 0 0 0 0 0 0 0 0 0 0 127 0" />
      <feOffset dy="1" />
      <feGaussianBlur stdDeviation="1" />
      <feColorMatrix type="matrix" values="0 0 0 0 0 0 0 0 0 0 0 0 0 0 0 0 0 0 0.04 0" />
      <feBlend mode="normal" in2="BackgroundImageFix" result="effect1_dropShadow" />
      <feBlend mode="normal" in="SourceGraphic" in2="effect1_dropShadow" result="shape" />
    </filter>
  </defs>
</svg>