<svg width="280" height="140" viewBox="0 0 280 140" fill="none" xmlns="http://www.w3.org/2000/svg">
<rect width="280" height="140" fill="#F4F5F7"/>
<g filter="url(#filter0_dd_cal)">
<rect x="65" y="18" width="150" height="108" rx="6" fill="white"/>
<rect x="65.5" y="18.5" width="149" height="107" rx="5.5" stroke="black" stroke-opacity="0.04"/>
</g>
<rect x="65" y="18" width="150" height="24" rx="6" fill="#4B5563"/>
<rect x="75" y="26" width="30" height="8" rx="2" fill="white" fill-opacity="0.6"/>
<rect x="75" y="50" width="14" height="10" rx="2" fill="#E5E7EB"/>
<rect x="95" y="50" width="14" height="10" rx="2" fill="#E5E7EB"/>
<rect x="115" y="50" width="14" height="10" rx="2" fill="#E5E7EB"/>
<rect x="135" y="50" width="14" height="10" rx="2" fill="#E5E7EB"/>
<rect x="155" y="50" width="14" height="10" rx="2" fill="#E5E7EB"/>
<rect x="175" y="50" width="14" height="10" rx="2" fill="#E5E7EB"/>
<rect x="195" y="50" width="14" height="10" rx="2" fill="#E5E7EB"/>
<rect x="75" y="66" width="14" height="10" rx="2" fill="#E5E7EB"/>
<rect x="95" y="66" width="14" height="10" rx="2" fill="#E5E7EB"/>
<rect x="115" y="66" width="14" height="10" rx="2" fill="#4B5563"/>
<rect x="135" y="66" width="14" height="10" rx="2" fill="#E5E7EB"/>
<rect x="155" y="66" width="14" height="10" rx="2" fill="#E5E7EB"/>
<rect x="175" y="66" width="14" height="10" rx="2" fill="#E5E7EB"/>
<rect x="195" y="66" width="14" height="10" rx="2" fill="#E5E7EB"/>
<rect x="75" y="82" width="14" height="10" rx="2" fill="#E5E7EB"/>
<rect x="95" y="82" width="14" height="10" rx="2" fill="#E5E7EB"/>
<rect x="115" y="82" width="14" height="10" rx="2" fill="#E5E7EB"/>
<rect x="135" y="82" width="14" height="10" rx="2" fill="#E5E7EB"/>
<rect x="155" y="82" width="14" height="10" rx="2" fill="#E5E7EB"/>
<rect x="175" y="82" width="14" height="10" rx="2" fill="#E5E7EB"/>
<rect x="195" y="82" width="14" height="10" rx="2" fill="#E5E7EB"/>
<rect x="75" y="98" width="14" height="10" rx="2" fill="#E5E7EB"/>
<rect x="95" y="98" width="14" height="10" rx="2" fill="#E5E7EB"/>
<rect x="115" y="98" width="14" height="10" rx="2" fill="#E5E7EB"/>
<rect x="135" y="98" width="14" height="10" rx="2" fill="#E5E7EB"/>
<rect x="155" y="98" width="14" height="10" rx="2" fill="#D2D6DC"/>
<rect x="175" y="98" width="14" height="10" rx="2" fill="#D2D6DC"/>
<rect x="195" y="98" width="14" height="10" rx="2" fill="#D2D6DC"/>
<defs>
<filter id="filter0_dd_cal" x="59" y="15" width="162" height="120" filterUnits="userSpaceOnUse" color-interpolation-filters="sRGB">
<feFlood flood-opacity="0" result="BackgroundImageFix"/>
<feColorMatrix in="SourceAlpha" type="matrix" values="0 0 0 0 0 0 0 0 0 0 0 0 0 0 0 0 0 0 127 0"/>
<feOffset dy="3"/>
<feGaussianBlur stdDeviation="2.5"/>
<feColorMatrix type="matrix" values="0 0 0 0 0 0 0 0 0 0 0 0 0 0 0 0 0 0 0.04 0"/>
<feBlend mode="normal" in2="BackgroundImageFix" result="effect1_dropShadow"/>
<feBlend mode="normal" in="SourceGraphic" in2="effect1_dropShadow" result="shape"/>
</filter>
</defs>
</svg>
