<svg width="280" height="140" viewBox="0 0 280 140" fill="none" xmlns="http://www.w3.org/2000/svg">
<rect width="280" height="140" fill="#F4F5F7"/>
<rect x="75" y="10" width="130" height="28" rx="6" fill="white" stroke="#D2D6DC"/>
<rect x="85" y="20" width="50" height="8" rx="2" fill="#9FA6B2"/>
<rect x="186" y="18" width="12" height="12" rx="2" fill="#E5E7EB"/>
<g filter="url(#filter0_dd_dp)">
<rect x="75" y="42" width="130" height="90" rx="6" fill="white"/>
<rect x="75.5" y="42.5" width="129" height="89" rx="5.5" stroke="black" stroke-opacity="0.04"/>
</g>
<rect x="75" y="42" width="130" height="20" rx="6" fill="#4B5563"/>
<rect x="85" y="48" width="28" height="8" rx="2" fill="white" fill-opacity="0.6"/>
<rect x="85" y="70" width="12" height="8" rx="2" fill="#E5E7EB"/>
<rect x="103" y="70" width="12" height="8" rx="2" fill="#E5E7EB"/>
<rect x="121" y="70" width="12" height="8" rx="2" fill="#E5E7EB"/>
<rect x="139" y="70" width="12" height="8" rx="2" fill="#E5E7EB"/>
<rect x="157" y="70" width="12" height="8" rx="2" fill="#E5E7EB"/>
<rect x="175" y="70" width="12" height="8" rx="2" fill="#E5E7EB"/>
<rect x="193" y="70" width="12" height="8" rx="2" fill="#E5E7EB"/>
<rect x="85" y="84" width="12" height="8" rx="2" fill="#E5E7EB"/>
<rect x="103" y="84" width="12" height="8" rx="2" fill="#4B5563"/>
<rect x="121" y="84" width="12" height="8" rx="2" fill="#E5E7EB"/>
<rect x="139" y="84" width="12" height="8" rx="2" fill="#E5E7EB"/>
<rect x="157" y="84" width="12" height="8" rx="2" fill="#E5E7EB"/>
<rect x="175" y="84" width="12" height="8" rx="2" fill="#E5E7EB"/>
<rect x="193" y="84" width="12" height="8" rx="2" fill="#E5E7EB"/>
<rect x="85" y="98" width="12" height="8" rx="2" fill="#E5E7EB"/>
<rect x="103" y="98" width="12" height="8" rx="2" fill="#E5E7EB"/>
<rect x="121" y="98" width="12" height="8" rx="2" fill="#E5E7EB"/>
<rect x="139" y="98" width="12" height="8" rx="2" fill="#E5E7EB"/>
<rect x="157" y="98" width="12" height="8" rx="2" fill="#E5E7EB"/>
<rect x="175" y="98" width="12" height="8" rx="2" fill="#E5E7EB"/>
<rect x="193" y="98" width="12" height="8" rx="2" fill="#E5E7EB"/>
<rect x="85" y="112" width="12" height="8" rx="2" fill="#E5E7EB"/>
<rect x="103" y="112" width="12" height="8" rx="2" fill="#E5E7EB"/>
<rect x="121" y="112" width="12" height="8" rx="2" fill="#D2D6DC"/>
<rect x="139" y="112" width="12" height="8" rx="2" fill="#D2D6DC"/>
<rect x="157" y="112" width="12" height="8" rx="2" fill="#D2D6DC"/>
<rect x="175" y="112" width="12" height="8" rx="2" fill="#D2D6DC"/>
<rect x="193" y="112" width="12" height="8" rx="2" fill="#D2D6DC"/>
<defs>
<filter id="filter0_dd_dp" x="69" y="39" width="142" height="102" filterUnits="userSpaceOnUse" color-interpolation-filters="sRGB">
<feFlood flood-opacity="0" result="BackgroundImageFix"/>
<feColorMatrix in="SourceAlpha" type="matrix" values="0 0 0 0 0 0 0 0 0 0 0 0 0 0 0 0 0 0 127 0"/>
<feOffset dy="3"/>
<feGaussianBlur stdDeviation="2.5"/>
<feColorMatrix type="matrix" values="0 0 0 0 0 0 0 0 0 0 0 0 0 0 0 0 0 0 0.04 0"/>
<feBlend mode="normal" in2="BackgroundImageFix" result="effect1_dropShadow"/>
<feBlend mode="normal" in="SourceGraphic" in2="effect1_dropShadow" result="shape"/>
</filter>
</defs>
</svg>
