<svg width="280" height="140" viewBox="0 0 280 140" fill="none" xmlns="http://www.w3.org/2000/svg">
<rect width="280" height="140" fill="#F4F5F7"/>
<rect x="50" y="24" width="180" height="92" rx="6" fill="white" stroke="#D2D6DC"/>
<rect x="60" y="36" width="32" height="6" rx="2" fill="#9FA6B2"/>
<rect x="100" y="36" width="60" height="6" rx="2" fill="#4B5563"/>
<line x1="50" y1="50" x2="230" y2="50" stroke="#E5E7EB"/>
<rect x="60" y="58" width="28" height="6" rx="2" fill="#9FA6B2"/>
<rect x="100" y="58" width="48" height="6" rx="2" fill="#4B5563"/>
<line x1="50" y1="72" x2="230" y2="72" stroke="#E5E7EB"/>
<rect x="60" y="80" width="34" height="6" rx="2" fill="#9FA6B2"/>
<rect x="100" y="80" width="56" height="6" rx="2" fill="#4B5563"/>
<line x1="50" y1="94" x2="230" y2="94" stroke="#E5E7EB"/>
<rect x="60" y="102" width="30" height="6" rx="2" fill="#9FA6B2"/>
<rect x="100" y="102" width="44" height="6" rx="2" fill="#4B5563"/>
</svg>
