<svg width="280" height="140" viewBox="0 0 280 140" fill="none" xmlns="http://www.w3.org/2000/svg">
<mask id="mask0" mask-type="alpha" maskUnits="userSpaceOnUse" x="0" y="0" width="280" height="140">
<rect width="280" height="140" fill="#F4F5F7"/>
</mask>
<g mask="url(#mask0)">
<rect width="280" height="140" fill="#F4F5F7"/>
<mask id="path-3-inside-1" fill="white">
<path fill-rule="evenodd" clip-rule="evenodd" d="M240 -1H40V56C40 58.2091 41.7909 60 44 60H236C238.209 60 240 58.2091 240 56V-1ZM44 81C41.7909 81 40 82.7909 40 85V141H240V85C240 82.7909 238.209 81 236 81H44Z"/>
</mask>
<path fill-rule="evenodd" clip-rule="evenodd" d="M240 -1H40V56C40 58.2091 41.7909 60 44 60H236C238.209 60 240 58.2091 240 56V-1ZM44 81C41.7909 81 40 82.7909 40 85V141H240V85C240 82.7909 238.209 81 236 81H44Z" fill="white"/>
<path d="M40 -1V-2H39V-1H40ZM240 -1H241V-2H240V-1ZM40 141H39V142H40V141ZM240 141V142H241V141H240ZM40 0H240V-2H40V0ZM41 56V-1H39V56H41ZM44 59C42.3431 59 41 57.6569 41 56H39C39 58.7614 41.2386 61 44 61V59ZM236 59H44V61H236V59ZM239 56C239 57.6569 237.657 59 236 59V61C238.761 61 241 58.7614 241 56H239ZM239 -1V56H241V-1H239ZM41 85C41 83.3431 42.3431 82 44 82V80C41.2386 80 39 82.2386 39 85H41ZM41 141V85H39V141H41ZM240 140H40V142H240V140ZM239 85V141H241V85H239ZM236 82C237.657 82 239 83.3431 239 85H241C241 82.2386 238.761 80 236 80V82ZM44 82H236V80H44V82Z" fill="#D2D6DC" mask="url(#path-3-inside-1)"/>
<rect y="70" width="280" height="1" fill="#D2D6DC"/>
</g>
</svg>
