<svg width="280" height="140" viewBox="0 0 280 140" fill="none" xmlns="http://www.w3.org/2000/svg">
<rect width="280" height="140" fill="white"/>
<rect width="280" height="140" fill="#F4F5F7"/>
<g filter="url(#filter0_dd)">
<path d="M30 34C30 31.7909 31.7909 30 34 30H246C248.209 30 250 31.7909 250 34V107C250 109.209 248.209 111 246 111H34C31.7909 111 30 109.209 30 107V34Z" fill="white"/>
<path d="M246 29.5H34C31.5147 29.5 29.5 31.5147 29.5 34V107C29.5 109.485 31.5147 111.5 34 111.5H246C248.485 111.5 250.5 109.485 250.5 107V34C250.5 31.5147 248.485 29.5 246 29.5Z" stroke="black" stroke-opacity="0.04"/>
</g>
<g filter="url(#filter1_dd)">
<rect x="220" y="36" width="24" height="10" rx="3" fill="#4B5563"/>
</g>
<rect x="226" y="40" width="12" height="2" rx="1" fill="#6B7280"/>
<rect x="30" y="52" width="220" height="1" fill="#E5E7EB"/>
<path d="M43.2482 39.663C43.0469 38.2088 41.9283 37.3651 40.4773 37.3651C38.7674 37.3651 37.4794 38.6115 37.4794 40.7273C37.4794 42.8398 38.7514 44.0895 40.4773 44.0895C42.0337 44.0895 43.0661 43.0827 43.2482 41.8331L42.0529 41.8267C41.9027 42.5938 41.2763 43.0252 40.4933 43.0252C39.4322 43.0252 38.6715 42.2294 38.6715 40.7273C38.6715 39.2507 39.4258 38.4293 40.4964 38.4293C41.2923 38.4293 41.9155 38.88 42.0529 39.663H43.2482ZM45.6956 44.0991C46.4658 44.0991 46.926 43.7379 47.137 43.3256H47.1753V44H48.2876V40.7145C48.2876 39.4169 47.2297 39.027 46.2932 39.027C45.2609 39.027 44.4683 39.4872 44.2126 40.3821L45.2929 40.5355C45.4079 40.1999 45.7339 39.9123 46.2996 39.9123C46.8366 39.9123 47.1306 40.1871 47.1306 40.6697V40.6889C47.1306 41.0213 46.7822 41.0373 45.9161 41.13C44.9637 41.2322 44.0528 41.5167 44.0528 42.6225C44.0528 43.5877 44.7591 44.0991 45.6956 44.0991ZM45.996 43.2489C45.5134 43.2489 45.1682 43.0284 45.1682 42.6033C45.1682 42.1591 45.555 41.9737 46.0727 41.9002C46.3763 41.8587 46.9836 41.782 47.1338 41.6605V42.239C47.1338 42.7855 46.6927 43.2489 45.996 43.2489ZM49.4509 44H50.6079V41.114C50.6079 40.4908 51.0777 40.0497 51.7137 40.0497C51.9086 40.0497 52.1515 40.0849 52.2506 40.1168V39.0526C52.1452 39.0334 51.963 39.0206 51.8351 39.0206C51.2726 39.0206 50.8028 39.3402 50.6238 39.9091H50.5727V39.0909H49.4509V44ZM54.6388 44.0863C55.4826 44.0863 55.8629 43.5845 56.0451 43.2266H56.1154V44H57.2532V37.4545H56.093V39.9027H56.0451C55.8693 39.5479 55.5082 39.027 54.642 39.027C53.5075 39.027 52.6158 39.9155 52.6158 41.5518C52.6158 43.169 53.4819 44.0863 54.6388 44.0863ZM54.9616 43.1371C54.1978 43.1371 53.7951 42.4659 53.7951 41.5455C53.7951 40.6314 54.1914 39.9762 54.9616 39.9762C55.7063 39.9762 56.1154 40.593 56.1154 41.5455C56.1154 42.4979 55.6999 43.1371 54.9616 43.1371ZM63.1698 39.0909H62.2014V37.9148H61.0445V39.0909H60.3477V39.9858H61.0445V42.7152C61.0381 43.6388 61.7093 44.0927 62.5786 44.0671C62.9078 44.0575 63.1347 43.9936 63.2593 43.9521L63.0644 43.0476C63.0004 43.0636 62.8694 43.0923 62.7256 43.0923C62.4347 43.0923 62.2014 42.9901 62.2014 42.5234V39.9858H63.1698V39.0909ZM64.1374 44H65.2944V39.0909H64.1374V44ZM64.7191 38.3942C65.0866 38.3942 65.3871 38.1129 65.3871 37.7678C65.3871 37.4194 65.0866 37.1381 64.7191 37.1381C64.3484 37.1381 64.0479 37.4194 64.0479 37.7678C64.0479 38.1129 64.3484 38.3942 64.7191 38.3942ZM68.9355 39.0909H67.9671V37.9148H66.8101V39.0909H66.1134V39.9858H66.8101V42.7152C66.8037 43.6388 67.4749 44.0927 68.3442 44.0671C68.6734 44.0575 68.9003 43.9936 69.0249 43.9521L68.83 43.0476C68.7661 43.0636 68.635 43.0923 68.4912 43.0923C68.2004 43.0923 67.9671 42.9901 67.9671 42.5234V39.9858H68.9355V39.0909ZM71.1655 37.4545H70.0085V44H71.1655V37.4545ZM74.5285 44.0959C75.6727 44.0959 76.4589 43.5366 76.6634 42.6832L75.5832 42.5618C75.4266 42.9773 75.0431 43.1946 74.5445 43.1946C73.7966 43.1946 73.3012 42.7024 73.2916 41.8619H76.7114V41.5071C76.7114 39.7844 75.6759 39.027 74.4678 39.027C73.0615 39.027 72.1443 40.0593 72.1443 41.5742C72.1443 43.1147 73.0487 44.0959 74.5285 44.0959ZM73.2948 41.082C73.33 40.4556 73.7934 39.9283 74.4838 39.9283C75.1485 39.9283 75.596 40.4141 75.6024 41.082H73.2948Z" fill="#4B5563"/>
<g opacity="0.2">
<path d="M240 59L242 61L240 63" stroke="#9FA6B2" stroke-linecap="round" stroke-linejoin="round"/>
<path d="M240 79L242 81L240 83" stroke="#9FA6B2" stroke-linecap="round" stroke-linejoin="round"/>
<path d="M240 99L242 101L240 103" stroke="#9FA6B2" stroke-linecap="round" stroke-linejoin="round"/>
<rect x="37" y="58" width="30" height="2" rx="1" fill="#9FA6B2"/>
<rect x="140" y="58" width="35" height="2" rx="1" fill="#9FA6B2"/>
<rect x="37" y="78" width="40" height="2" rx="1" fill="#9FA6B2"/>
<rect x="140" y="78" width="30" height="2" rx="1" fill="#9FA6B2"/>
<rect x="37" y="98" width="35" height="2" rx="1" fill="#9FA6B2"/>
<rect x="140" y="98" width="37" height="2" rx="1" fill="#9FA6B2"/>
<rect x="37" y="63" width="24" height="2" rx="1" fill="#D2D6DC"/>
<rect x="140" y="63" width="17" height="2" rx="1" fill="#D2D6DC"/>
<rect x="37" y="83" width="20" height="2" rx="1" fill="#D2D6DC"/>
<rect x="140" y="83" width="24" height="2" rx="1" fill="#D2D6DC"/>
<rect x="37" y="103" width="25" height="2" rx="1" fill="#D2D6DC"/>
<rect x="140" y="103" width="22" height="2" rx="1" fill="#D2D6DC"/>
<rect x="30" y="71" width="220" height="1" fill="#E5E7EB"/>
<rect x="30" y="91" width="220" height="1" fill="#E5E7EB"/>
</g>
<defs>
<filter id="filter0_dd" x="24" y="27" width="232" height="93" filterUnits="userSpaceOnUse" color-interpolation-filters="sRGB">
<feFlood flood-opacity="0" result="BackgroundImageFix"/>
<feColorMatrix in="SourceAlpha" type="matrix" values="0 0 0 0 0 0 0 0 0 0 0 0 0 0 0 0 0 0 127 0"/>
<feOffset dy="3"/>
<feGaussianBlur stdDeviation="2.5"/>
<feColorMatrix type="matrix" values="0 0 0 0 0 0 0 0 0 0 0 0 0 0 0 0 0 0 0.04 0"/>
<feBlend mode="normal" in2="BackgroundImageFix" result="effect1_dropShadow"/>
<feColorMatrix in="SourceAlpha" type="matrix" values="0 0 0 0 0 0 0 0 0 0 0 0 0 0 0 0 0 0 127 0"/>
<feOffset dy="1"/>
<feGaussianBlur stdDeviation="1"/>
<feColorMatrix type="matrix" values="0 0 0 0 0 0 0 0 0 0 0 0 0 0 0 0 0 0 0.03 0"/>
<feBlend mode="normal" in2="effect1_dropShadow" result="effect2_dropShadow"/>
<feBlend mode="normal" in="SourceGraphic" in2="effect2_dropShadow" result="shape"/>
</filter>
<filter id="filter1_dd" x="217" y="34" width="30" height="16" filterUnits="userSpaceOnUse" color-interpolation-filters="sRGB">
<feFlood flood-opacity="0" result="BackgroundImageFix"/>
<feColorMatrix in="SourceAlpha" type="matrix" values="0 0 0 0 0 0 0 0 0 0 0 0 0 0 0 0 0 0 127 0"/>
<feOffset dy="1"/>
<feGaussianBlur stdDeviation="1"/>
<feColorMatrix type="matrix" values="0 0 0 0 0 0 0 0 0 0 0 0 0 0 0 0 0 0 0.06 0"/>
<feBlend mode="normal" in2="BackgroundImageFix" result="effect1_dropShadow"/>
<feColorMatrix in="SourceAlpha" type="matrix" values="0 0 0 0 0 0 0 0 0 0 0 0 0 0 0 0 0 0 127 0"/>
<feOffset dy="1"/>
<feGaussianBlur stdDeviation="1.5"/>
<feColorMatrix type="matrix" values="0 0 0 0 0 0 0 0 0 0 0 0 0 0 0 0 0 0 0.1 0"/>
<feBlend mode="normal" in2="effect1_dropShadow" result="effect2_dropShadow"/>
<feBlend mode="normal" in="SourceGraphic" in2="effect2_dropShadow" result="shape"/>
</filter>
</defs>
</svg>
