<svg width="280" height="140" viewBox="0 0 280 140" fill="none" xmlns="http://www.w3.org/2000/svg">
<rect width="280" height="140" fill="#F4F5F7"/>
<g filter="url(#filter0_d)">
<path d="M39 44C39 41.7909 40.7909 40 43 40H235C237.209 40 239 41.7909 239 44V97C239 99.2091 237.209 101 235 101H43C40.7909 101 39 99.2091 39 97V44Z" fill="white"/>
<path d="M43 40.5H235C236.933 40.5 238.5 42.067 238.5 44V97C238.5 98.933 236.933 100.5 235 100.5H43C41.067 100.5 39.5 98.933 39.5 97V44C39.5 42.067 41.067 40.5 43 40.5Z" stroke="#D2D6DC"/>
</g>
<rect x="40" y="60" width="198" height="1" fill="#D2D6DC"/>
<rect x="40" y="80" width="198" height="1" fill="#D2D6DC"/>
<defs>
<filter id="filter0_d" x="37" y="39" width="204" height="65" filterUnits="userSpaceOnUse" color-interpolation-filters="sRGB">
<feFlood flood-opacity="0" result="BackgroundImageFix"/>
<feColorMatrix in="SourceAlpha" type="matrix" values="0 0 0 0 0 0 0 0 0 0 0 0 0 0 0 0 0 0 127 0"/>
<feOffset dy="1"/>
<feGaussianBlur stdDeviation="1"/>
<feColorMatrix type="matrix" values="0 0 0 0 0 0 0 0 0 0 0 0 0 0 0 0 0 0 0.05 0"/>
<feBlend mode="normal" in2="BackgroundImageFix" result="effect1_dropShadow"/>
<feBlend mode="normal" in="SourceGraphic" in2="effect1_dropShadow" result="shape"/>
</filter>
</defs>
</svg>
