<svg width="280" height="140" viewBox="0 0 280 140" fill="none" xmlns="http://www.w3.org/2000/svg">
<rect width="280" height="140" fill="white"/>
<rect width="280" height="140" fill="#F4F5F7"/>
<g filter="url(#filter0_dd)">
<path d="M148 20C148 17.7909 149.791 16 152 16H260C262.209 16 264 17.7909 264 20V36C264 38.2091 262.209 40 260 40H152C149.791 40 148 38.2091 148 36V20Z" fill="white"/>
<path d="M260 15.5H152C149.515 15.5 147.5 17.5147 147.5 20V36C147.5 38.4853 149.515 40.5 152 40.5H260C262.485 40.5 264.5 38.4853 264.5 36V20C264.5 17.5147 262.485 15.5 260 15.5Z" stroke="black" stroke-opacity="0.04"/>
</g>
<rect x="174" y="27" width="48" height="2" rx="1" fill="#E5E7EB"/>
<path d="M256 26L252 30M256 30C253.657 27.6569 252 26 252 26" stroke="#9FA6B2" stroke-linecap="round"/>
<path fill-rule="evenodd" clip-rule="evenodd" d="M160.103 23.152C160.717 22.0301 162.287 22.0301 162.901 23.152L167.379 31.34C167.98 32.4403 167.207 33.8 165.98 33.8H157.024C155.797 33.8 155.024 32.4403 155.625 31.34L160.103 23.152ZM162.304 31.3244C162.304 31.7802 161.945 32.1497 161.502 32.1497C161.059 32.1497 160.699 31.7802 160.699 31.3244C160.699 30.8686 161.059 30.499 161.502 30.499C161.945 30.499 162.304 30.8686 162.304 31.3244ZM161.502 25.5466C161.059 25.5466 160.699 25.9059 160.699 26.349V28.0456C160.699 28.4888 161.059 28.848 161.502 28.848C161.945 28.848 162.304 28.4888 162.304 28.0456V26.349C162.304 25.9059 161.945 25.5466 161.502 25.5466Z" fill="#D2D6DC"/>
<defs>
<filter id="filter0_dd" x="142" y="13" width="128" height="36" filterUnits="userSpaceOnUse" color-interpolation-filters="sRGB">
<feFlood flood-opacity="0" result="BackgroundImageFix"/>
<feColorMatrix in="SourceAlpha" type="matrix" values="0 0 0 0 0 0 0 0 0 0 0 0 0 0 0 0 0 0 127 0"/>
<feOffset dy="3"/>
<feGaussianBlur stdDeviation="2.5"/>
<feColorMatrix type="matrix" values="0 0 0 0 0 0 0 0 0 0 0 0 0 0 0 0 0 0 0.04 0"/>
<feBlend mode="normal" in2="BackgroundImageFix" result="effect1_dropShadow"/>
<feColorMatrix in="SourceAlpha" type="matrix" values="0 0 0 0 0 0 0 0 0 0 0 0 0 0 0 0 0 0 127 0"/>
<feOffset dy="1"/>
<feGaussianBlur stdDeviation="1"/>
<feColorMatrix type="matrix" values="0 0 0 0 0 0 0 0 0 0 0 0 0 0 0 0 0 0 0.03 0"/>
<feBlend mode="normal" in2="effect1_dropShadow" result="effect2_dropShadow"/>
<feBlend mode="normal" in="SourceGraphic" in2="effect2_dropShadow" result="shape"/>
</filter>
</defs>
</svg>
