<svg width="280" height="140" viewBox="0 0 280 140" fill="none" xmlns="http://www.w3.org/2000/svg">
<rect width="280" height="140" fill="white"/>
<rect width="280" height="140" fill="#F4F5F7"/>
<g filter="url(#filter0_d)">
<rect x="49" y="55" width="181" height="30" rx="6" fill="white"/>
<rect x="48.5" y="54.5" width="182" height="31" rx="6.5" stroke="black" stroke-opacity="0.04"/>
</g>
<path d="M212 66L216 70L212 74" stroke="#9FA6B2" stroke-width="2" stroke-linecap="round" stroke-linejoin="round"/>
<path d="M66 74L62 70L66 66" stroke="#9FA6B2" stroke-width="2" stroke-linecap="round" stroke-linejoin="round"/>
<rect x="79" y="55" width="1" height="30" fill="#E5E7EB"/>
<rect x="109" y="55" width="1" height="30" fill="#E5E7EB"/>
<rect x="139" y="55" width="1" height="30" fill="#E5E7EB"/>
<rect x="169" y="55" width="1" height="30" fill="#E5E7EB"/>
<rect x="199" y="55" width="1" height="30" fill="#E5E7EB"/>
<path d="M96.1829 64.8182H94.4279L91.8974 66.4439V68.1342L94.2788 66.6129H94.3384V75H96.1829V64.8182Z" fill="#6B7280"/>
<path d="M121.057 75H128.037V73.4588H123.603V73.3892L125.358 71.6044C127.336 69.7053 127.883 68.7805 127.883 67.6321C127.883 65.9268 126.496 64.679 124.448 64.679C122.429 64.679 120.998 65.9318 120.998 67.8658H122.752C122.752 66.8267 123.409 66.1754 124.423 66.1754C125.392 66.1754 126.113 66.767 126.113 67.7266C126.113 68.5767 125.596 69.1832 124.592 70.2024L121.057 73.6676V75Z" fill="#6B7280"/>
<path d="M153.999 75.1392C156.177 75.1392 157.763 73.8913 157.758 72.1712C157.763 70.8984 156.967 69.9837 155.541 69.7798V69.7003C156.644 69.4616 157.385 68.6413 157.38 67.4979C157.385 65.9467 156.063 64.679 154.029 64.679C152.051 64.679 150.519 65.8572 150.479 67.5625H152.254C152.284 66.7074 153.08 66.1754 154.019 66.1754C154.969 66.1754 155.6 66.7521 155.595 67.6072C155.6 68.4972 154.864 69.0888 153.81 69.0888H152.911V70.5107H153.81C155.098 70.5107 155.864 71.157 155.859 72.0767C155.864 72.9766 155.083 73.593 153.994 73.593C152.97 73.593 152.18 73.0611 152.135 72.2308H150.266C150.315 73.951 151.852 75.1392 153.999 75.1392Z" fill="#6B7280"/>
<path d="M180.059 73.1108H184.916V75H186.676V73.1108H187.979V71.5945H186.676V64.8182H184.379L180.059 71.6442V73.1108ZM184.936 71.5945H181.948V71.5149L184.856 66.9062H184.936V71.5945Z" fill="#6B7280"/>
<defs>
<filter id="filter0_d" x="46" y="53" width="187" height="36" filterUnits="userSpaceOnUse" color-interpolation-filters="sRGB">
<feFlood flood-opacity="0" result="BackgroundImageFix"/>
<feColorMatrix in="SourceAlpha" type="matrix" values="0 0 0 0 0 0 0 0 0 0 0 0 0 0 0 0 0 0 127 0"/>
<feOffset dy="1"/>
<feGaussianBlur stdDeviation="1"/>
<feColorMatrix type="matrix" values="0 0 0 0 0 0 0 0 0 0 0 0 0 0 0 0 0 0 0.04 0"/>
<feBlend mode="normal" in2="BackgroundImageFix" result="effect1_dropShadow"/>
<feBlend mode="normal" in="SourceGraphic" in2="effect1_dropShadow" result="shape"/>
</filter>
</defs>
</svg>
