<svg width="280" height="140" viewBox="0 0 280 140" fill="none" xmlns="http://www.w3.org/2000/svg">
<rect width="280" height="140" fill="#F4F5F7"/>
<rect x="40" y="24" width="92" height="92" rx="6" fill="white" stroke="#D2D6DC"/>
<rect x="148" y="24" width="92" height="92" rx="6" fill="white" stroke="#D2D6DC"/>
<rect x="50" y="38" width="50" height="6" rx="2" fill="#4B5563"/>
<rect x="50" y="50" width="72" height="4" rx="2" fill="#9FA6B2"/>
<rect x="50" y="60" width="60" height="4" rx="2" fill="#9FA6B2"/>
<rect x="158" y="38" width="46" height="6" rx="2" fill="#4B5563"/>
<rect x="158" y="50" width="68" height="4" rx="2" fill="#9FA6B2"/>
<rect x="158" y="60" width="54" height="4" rx="2" fill="#9FA6B2"/>
<line x1="140" y1="30" x2="140" y2="110" stroke="#D2D6DC" stroke-width="2" stroke-dasharray="4 3"/>
<circle cx="140" cy="70" r="6" fill="#4B5563"/>
<path d="M137 70L140 67L143 70" stroke="white" stroke-width="1" stroke-linecap="round"/>
<path d="M137 70L140 73L143 70" stroke="white" stroke-width="1" stroke-linecap="round"/>
</svg>
