<svg width="280" height="140" viewBox="0 0 280 140" fill="none" xmlns="http://www.w3.org/2000/svg">
<rect width="280" height="140" fill="white"/>
<rect width="280" height="140" fill="#F4F5F7"/>
<g filter="url(#filter0_d)">
<rect x="49" y="55" width="181" height="30" rx="6" fill="white"/>
<rect x="48.5" y="54.5" width="182" height="31" rx="6.5" stroke="black" stroke-opacity="0.04"/>
</g>
<path d="M165 54.5L173 70L165 85.5" stroke="#E5E7EB"/>
<path d="M105 54.5L113 70L105 85.5" stroke="#E5E7EB"/>
<path d="M76.1361 75.1939C78.5921 75.1989 80.0587 73.2599 80.0587 69.919C80.0587 66.598 78.5821 64.679 76.1361 64.679C73.6901 64.679 72.2185 66.593 72.2135 69.919C72.2135 73.255 73.6801 75.1939 76.1361 75.1939ZM76.1361 73.6378C74.8683 73.6378 74.0729 72.3651 74.0779 69.919C74.0828 67.4929 74.8733 66.2152 76.1361 66.2152C77.4039 66.2152 78.1943 67.4929 78.1993 69.919C78.1993 72.3651 77.4088 73.6378 76.1361 73.6378ZM85.8518 64.8182H84.0969L81.5663 66.4439V68.1342L83.9477 66.6129H84.0074V75H85.8518V64.8182Z" fill="#6B7280"/>
<path d="M135.152 75.1939C137.608 75.1989 139.074 73.2599 139.074 69.919C139.074 66.598 137.598 64.679 135.152 64.679C132.706 64.679 131.234 66.593 131.229 69.919C131.229 73.255 132.696 75.1939 135.152 75.1939ZM135.152 73.6378C133.884 73.6378 133.089 72.3651 133.093 69.919C133.098 67.4929 133.889 66.2152 135.152 66.2152C136.419 66.2152 137.21 67.4929 137.215 69.919C137.215 72.3651 136.424 73.6378 135.152 73.6378ZM140.726 75H147.706V73.4588H143.272V73.3892L145.027 71.6044C147.005 69.7053 147.552 68.7805 147.552 67.6321C147.552 65.9268 146.165 64.679 144.117 64.679C142.098 64.679 140.666 65.9318 140.666 67.8658H142.421C142.421 66.8267 143.078 66.1754 144.092 66.1754C145.061 66.1754 145.782 66.767 145.782 67.7266C145.782 68.5767 145.265 69.1832 144.261 70.2024L140.726 73.6676V75Z" fill="#6B7280"/>
<path d="M193.94 75.1939C196.396 75.1989 197.862 73.2599 197.862 69.919C197.862 66.598 196.386 64.679 193.94 64.679C191.494 64.679 190.022 66.593 190.017 69.919C190.017 73.255 191.484 75.1939 193.94 75.1939ZM193.94 73.6378C192.672 73.6378 191.877 72.3651 191.882 69.919C191.887 67.4929 192.677 66.2152 193.94 66.2152C195.208 66.2152 195.998 67.4929 196.003 69.919C196.003 72.3651 195.213 73.6378 193.94 73.6378ZM203.168 75.1392C205.346 75.1392 206.932 73.8913 206.927 72.1712C206.932 70.8984 206.136 69.9837 204.71 69.7798V69.7003C205.813 69.4616 206.554 68.6413 206.549 67.4979C206.554 65.9467 205.232 64.679 203.198 64.679C201.219 64.679 199.688 65.8572 199.648 67.5625H201.423C201.453 66.7074 202.249 66.1754 203.188 66.1754C204.138 66.1754 204.769 66.7521 204.764 67.6072C204.769 68.4972 204.033 69.0888 202.979 69.0888H202.08V70.5107H202.979C204.267 70.5107 205.033 71.157 205.028 72.0767C205.033 72.9766 204.252 73.593 203.163 73.593C202.139 73.593 201.349 73.0611 201.304 72.2308H199.435C199.484 73.951 201.021 75.1392 203.168 75.1392Z" fill="#6B7280"/>
<defs>
<filter id="filter0_d" x="46" y="53" width="187" height="36" filterUnits="userSpaceOnUse" color-interpolation-filters="sRGB">
<feFlood flood-opacity="0" result="BackgroundImageFix"/>
<feColorMatrix in="SourceAlpha" type="matrix" values="0 0 0 0 0 0 0 0 0 0 0 0 0 0 0 0 0 0 127 0"/>
<feOffset dy="1"/>
<feGaussianBlur stdDeviation="1"/>
<feColorMatrix type="matrix" values="0 0 0 0 0 0 0 0 0 0 0 0 0 0 0 0 0 0 0.04 0"/>
<feBlend mode="normal" in2="BackgroundImageFix" result="effect1_dropShadow"/>
<feBlend mode="normal" in="SourceGraphic" in2="effect1_dropShadow" result="shape"/>
</filter>
</defs>
</svg>
