<?xml version="1.0" encoding="UTF-8"?>
<svg width="280px" height="140px" viewBox="0 0 280 140" version="1.1" xmlns="http://www.w3.org/2000/svg" xmlns:xlink="http://www.w3.org/1999/xlink">
    <title>Group</title>
    <g id="Page-1" stroke="none" stroke-width="1" fill="none" fill-rule="evenodd">
        <g id="Group">
            <g id="upload" fill="#F4F5F7" fill-rule="nonzero">
                <rect id="Rectangle" x="0" y="0" width="280" height="140"></rect>
            </g>
            <g id="Upload" transform="translate(91.000000, 54.000000)"></g>
            <g id="1.Button/1.Default/2.Icon.2.Secondary-#" transform="translate(91.000000, 54.000000)">
                <g id="Z/Shape/RectangleRC/2px/RC-A">
                    <rect id="BG/fill" fill="#FFFFFF" fill-rule="nonzero" x="1" y="1" width="97" height="30" rx="1"></rect>
                    <rect id="outline" stroke="#000000" opacity="0.15" x="0.5" y="0.5" width="98" height="31" rx="2"></rect>
                </g>
                <text id="Upload" fill="#000000" fill-rule="nonzero" font-family="PingFangSC-Regular, PingFang SC" font-size="14" font-weight="normal">
                    <tspan x="40" y="20">Upload</tspan>
                </text>
                <g id="upload" transform="translate(16.000000, 8.000000)" fill="#000000">
                    <rect id="Rectangle" opacity="0" x="0" y="0" width="16" height="16"></rect>
                    <path d="M6.25,4.9640625 L7.4046875,4.9640625 L7.4046875,10.25 C7.4046875,10.31875 7.4609375,10.375 7.5296875,10.375 L8.4671875,10.375 C8.5359375,10.375 8.5921875,10.31875 8.5921875,10.25 L8.5921875,4.9640625 L9.75,4.9640625 C9.8546875,4.9640625 9.9125,4.84375 9.8484375,4.7625 L8.0984375,2.546875 C8.0484375,2.4828125 7.9515625,2.4828125 7.9015625,2.546875 L6.1515625,4.7609375 C6.0875,4.84375 6.1453125,4.9640625 6.25,4.9640625 L6.25,4.9640625 Z M13.71875,9.78125 L12.78125,9.78125 C12.7125,9.78125 12.65625,9.8375 12.65625,9.90625 L12.65625,12.3125 L3.34375,12.3125 L3.34375,9.90625 C3.34375,9.8375 3.2875,9.78125 3.21875,9.78125 L2.28125,9.78125 C2.2125,9.78125 2.15625,9.8375 2.15625,9.90625 L2.15625,13 C2.15625,13.2765625 2.3796875,13.5 2.65625,13.5 L13.34375,13.5 C13.6203125,13.5 13.84375,13.2765625 13.84375,13 L13.84375,9.90625 C13.84375,9.8375 13.7875,9.78125 13.71875,9.78125 Z" id="Shape" opacity="0.65"></path>
                </g>
            </g>
        </g>
    </g>
</svg>