<svg width="280" height="140" xmlns="http://www.w3.org/2000/svg"><g fill="none" fill-rule="evenodd"><path d="M0 0h280v140H0z" fill="#F4F5F7" fill-rule="nonzero"/><g transform="translate(120 50)" fill-rule="nonzero"><circle fill="#000" opacity=".45" cx="20" cy="20" r="20"/><path d="M19.634 16.155a.499.499 0 01.706 0l4.94 4.95c.39.39.259.707-.293.707h-3V27a1 1 0 01-1 1h-2a1 1 0 01-1-1v-5.188h-3c-.553 0-.684-.317-.294-.707l4.94-4.95zM26 14H14a1 1 0 010-2h12a1 1 0 010 2z" fill="#FFF"/></g></g></svg>