<svg width="280" height="140" viewBox="0 0 280 140" fill="none" xmlns="http://www.w3.org/2000/svg">
<rect width="280" height="140" fill="#F4F5F7"/>
<g filter="url(#filter0_dd_cas)">
<rect x="40" y="24" width="95" height="92" rx="6" fill="white"/>
<rect x="40.5" y="24.5" width="94" height="91" rx="5.5" stroke="black" stroke-opacity="0.04"/>
</g>
<rect x="50" y="34" width="50" height="8" rx="2" fill="#4B5563"/>
<rect x="50" y="50" width="45" height="8" rx="2" fill="#9FA6B2"/>
<rect x="50" y="66" width="55" height="8" rx="2" fill="#9FA6B2"/>
<rect x="50" y="82" width="40" height="8" rx="2" fill="#9FA6B2"/>
<rect x="50" y="98" width="48" height="8" rx="2" fill="#9FA6B2"/>
<path d="M120" y1="34" x2="122" y2="38" />
<g filter="url(#filter1_dd_cas)">
<rect x="145" y="24" width="95" height="76" rx="6" fill="white"/>
<rect x="145.5" y="24.5" width="94" height="75" rx="5.5" stroke="black" stroke-opacity="0.04"/>
</g>
<rect x="155" y="34" width="48" height="8" rx="2" fill="#4B5563"/>
<rect x="155" y="50" width="42" height="8" rx="2" fill="#9FA6B2"/>
<rect x="155" y="66" width="52" height="8" rx="2" fill="#9FA6B2"/>
<rect x="155" y="82" width="38" height="8" rx="2" fill="#9FA6B2"/>
<defs>
<filter id="filter0_dd_cas" x="34" y="21" width="107" height="104" filterUnits="userSpaceOnUse" color-interpolation-filters="sRGB">
<feFlood flood-opacity="0" result="BackgroundImageFix"/>
<feColorMatrix in="SourceAlpha" type="matrix" values="0 0 0 0 0 0 0 0 0 0 0 0 0 0 0 0 0 0 127 0"/>
<feOffset dy="3"/>
<feGaussianBlur stdDeviation="2.5"/>
<feColorMatrix type="matrix" values="0 0 0 0 0 0 0 0 0 0 0 0 0 0 0 0 0 0 0.04 0"/>
<feBlend mode="normal" in2="BackgroundImageFix" result="effect1_dropShadow"/>
<feBlend mode="normal" in="SourceGraphic" in2="effect1_dropShadow" result="shape"/>
</filter>
<filter id="filter1_dd_cas" x="139" y="21" width="107" height="88" filterUnits="userSpaceOnUse" color-interpolation-filters="sRGB">
<feFlood flood-opacity="0" result="BackgroundImageFix"/>
<feColorMatrix in="SourceAlpha" type="matrix" values="0 0 0 0 0 0 0 0 0 0 0 0 0 0 0 0 0 0 127 0"/>
<feOffset dy="3"/>
<feGaussianBlur stdDeviation="2.5"/>
<feColorMatrix type="matrix" values="0 0 0 0 0 0 0 0 0 0 0 0 0 0 0 0 0 0 0.04 0"/>
<feBlend mode="normal" in2="BackgroundImageFix" result="effect1_dropShadow"/>
<feBlend mode="normal" in="SourceGraphic" in2="effect1_dropShadow" result="shape"/>
</filter>
</defs>
</svg>
