<svg width="280" height="140" xmlns="http://www.w3.org/2000/svg"><g fill="none" fill-rule="evenodd"><path fill="none" d="M0 0h280v140H0z" fill-opacity="0" fill-rule="nonzero"/><path d="M67 19h146a2 2 0 012 2v22H65V21a2 2 0 012-2zM65 97h150v22a2 2 0 01-2 2H67a2 2 0 01-2-2V97z" fill="#F5F5F5" fill-rule="nonzero"/><path stroke="#E0E0E0" d="M65.5 42.5h149v54h-149z"/><path fill="#EBEBEB" fill-rule="nonzero" d="M93 26h64v10H93zM93 104h64v10H93z"/><path d="M83.813 28h-.88c-.059 0-.115.03-.15.077l-3.33 4.59-3.329-4.59a.188.188 0 00-.151-.077h-.88a.094.094 0 00-.075.149l4.132 5.696c.15.207.457.207.606 0l4.132-5.696a.093.093 0 00-.075-.149zM76 104.187v.88c0 .059.03.115.077.15l4.59 3.33-4.59 3.329a.188.188 0 00-.077.151v.88c0 .075.087.12.149.075l5.696-4.132a.374.374 0 000-.606l-5.696-4.132a.093.093 0 00-.149.075z" opacity=".65" fill="#000" fill-rule="nonzero"/><g fill="#F5F5F5" fill-rule="nonzero"><path d="M76 53h128v6H76zM76 67h128v6H76zM76 81h80v6H76z"/></g></g></svg>