<svg width="280" height="140" viewBox="0 0 280 140" fill="none" xmlns="http://www.w3.org/2000/svg">
<rect width="280" height="140" fill="white"/>
<mask id="mask0" mask-type="alpha" maskUnits="userSpaceOnUse" x="0" y="0" width="280" height="140">
<rect width="280" height="140" fill="#F4F5F7"/>
</mask>
<g mask="url(#mask0)">
<rect width="280" height="140" fill="#F4F5F7"/>
<g filter="url(#filter0_d)">
<rect x="220" width="60" height="140" fill="white"/>
<rect x="219.5" y="-0.5" width="61" height="141" stroke="black" stroke-opacity="0.04"/>
</g>
<path d="M233 9L229 13M233 13C230.657 10.6569 229 9 229 9" stroke="#D2D6DC" stroke-linecap="round"/>
<rect x="228" y="21" width="28" height="3.08571" rx="1.54286" fill="#6B7280"/>
<rect x="228" y="37" width="33" height="2" rx="1" fill="#9FA6B2"/>
<rect x="228" y="54" width="37" height="2" rx="1" fill="#9FA6B2"/>
<rect x="228" y="71" width="33" height="2" rx="1" fill="#9FA6B2"/>
<rect x="228" y="88" width="41" height="2" rx="1" fill="#9FA6B2"/>
<rect x="228" y="93" width="44" height="2" rx="1" fill="#9FA6B2"/>
<rect x="228" y="98" width="42" height="2" rx="1" fill="#9FA6B2"/>
<rect x="228" y="103" width="38" height="2" rx="1" fill="#9FA6B2"/>
<rect x="228" y="32" width="22" height="2" rx="1" fill="#D2D6DC"/>
<rect x="228" y="49" width="22" height="2" rx="1" fill="#D2D6DC"/>
<rect x="228" y="66" width="22" height="2" rx="1" fill="#D2D6DC"/>
<rect x="228" y="83" width="22" height="2" rx="1" fill="#D2D6DC"/>
</g>
<defs>
<filter id="filter0_d" x="217" y="-2" width="66" height="146" filterUnits="userSpaceOnUse" color-interpolation-filters="sRGB">
<feFlood flood-opacity="0" result="BackgroundImageFix"/>
<feColorMatrix in="SourceAlpha" type="matrix" values="0 0 0 0 0 0 0 0 0 0 0 0 0 0 0 0 0 0 127 0"/>
<feOffset dy="1"/>
<feGaussianBlur stdDeviation="1"/>
<feColorMatrix type="matrix" values="0 0 0 0 0 0 0 0 0 0 0 0 0 0 0 0 0 0 0.04 0"/>
<feBlend mode="normal" in2="BackgroundImageFix" result="effect1_dropShadow"/>
<feBlend mode="normal" in="SourceGraphic" in2="effect1_dropShadow" result="shape"/>
</filter>
</defs>
</svg>
