<svg width="280" height="140" viewBox="0 0 280 140" fill="none" xmlns="http://www.w3.org/2000/svg">
<rect width="280" height="140" fill="white"/>
<rect width="280" height="140" fill="#F4F5F7"/>
<g filter="url(#filter0_dd)">
<path d="M68 38C68 35.7909 69.7909 34 72 34H208C210.209 34 212 35.7909 212 38V102C212 104.209 210.209 106 208 106H72C69.7909 106 68 104.209 68 102V38Z" fill="white"/>
<path d="M72 33.5C69.5147 33.5 67.5 35.5147 67.5 38V102C67.5 104.485 69.5147 106.5 72 106.5H208C210.485 106.5 212.5 104.485 212.5 102V38C212.5 35.5147 210.485 33.5 208 33.5H72Z" stroke="black" stroke-opacity="0.04"/>
</g>
<rect x="74" y="88" width="63" height="12" rx="3" fill="#E5E7EB"/>
<rect x="143" y="88" width="63" height="12" rx="3" fill="#4B5563"/>
<rect x="94" y="93" width="24" height="2" rx="1" fill="#9FA6B2"/>
<rect x="163" y="93" width="24" height="2" rx="1" fill="#9FA6B2"/>
<rect x="98" y="78" width="84" height="2" rx="1" fill="#D2D6DC"/>
<rect x="96" y="73" width="88" height="2" rx="1" fill="#D2D6DC"/>
<rect x="94" y="64.8555" width="92" height="3.08571" rx="1.54286" fill="#6B7280"/>
<path fill-rule="evenodd" clip-rule="evenodd" d="M138.257 43.3592C139.022 41.961 140.979 41.961 141.743 43.3592L147.324 53.5631C148.074 54.9344 147.11 56.6288 145.581 56.6288H134.42C132.89 56.6288 131.927 54.9344 132.677 53.5631L138.257 43.3592ZM141 53.5435C141 54.1116 140.552 54.5721 140 54.5721C139.448 54.5721 139 54.1116 139 53.5435C139 52.9755 139.448 52.515 140 52.515C140.552 52.515 141 52.9755 141 53.5435ZM140 46.3433C139.448 46.3433 139 46.791 139 47.3433V49.4576C139 50.0099 139.448 50.4576 140 50.4576C140.552 50.4576 141 50.0099 141 49.4576V47.3433C141 46.791 140.552 46.3433 140 46.3433Z" fill="#D2D6DC"/>
<defs>
<filter id="filter0_dd" x="62" y="31" width="156" height="84" filterUnits="userSpaceOnUse" color-interpolation-filters="sRGB">
<feFlood flood-opacity="0" result="BackgroundImageFix"/>
<feColorMatrix in="SourceAlpha" type="matrix" values="0 0 0 0 0 0 0 0 0 0 0 0 0 0 0 0 0 0 127 0"/>
<feOffset dy="3"/>
<feGaussianBlur stdDeviation="2.5"/>
<feColorMatrix type="matrix" values="0 0 0 0 0 0 0 0 0 0 0 0 0 0 0 0 0 0 0.04 0"/>
<feBlend mode="normal" in2="BackgroundImageFix" result="effect1_dropShadow"/>
<feColorMatrix in="SourceAlpha" type="matrix" values="0 0 0 0 0 0 0 0 0 0 0 0 0 0 0 0 0 0 127 0"/>
<feOffset dy="1"/>
<feGaussianBlur stdDeviation="1"/>
<feColorMatrix type="matrix" values="0 0 0 0 0 0 0 0 0 0 0 0 0 0 0 0 0 0 0.03 0"/>
<feBlend mode="normal" in2="effect1_dropShadow" result="effect2_dropShadow"/>
<feBlend mode="normal" in="SourceGraphic" in2="effect2_dropShadow" result="shape"/>
</filter>
</defs>
</svg>
