<svg width="280" height="140" viewBox="0 0 280 140" fill="none" xmlns="http://www.w3.org/2000/svg">
<rect width="280" height="140" fill="#F4F5F7"/>
<path d="M80 62L84.5 52L89 62L100 63.5L92 71L94 82L84.5 77L75 82L77 71L69 63.5Z" fill="#4B5563"/>
<path d="M112 62L116.5 52L121 62L132 63.5L124 71L126 82L116.5 77L107 82L109 71L101 63.5Z" fill="#4B5563"/>
<path d="M144 62L148.5 52L153 62L164 63.5L156 71L158 82L148.5 77L139 82L141 71L133 63.5Z" fill="#4B5563"/>
<path d="M176 62L180.5 52L185 62L196 63.5L188 71L190 82L180.5 77L171 82L173 71L165 63.5Z" fill="#E5E7EB"/>
<path d="M208 62L212.5 52L217 62L228 63.5L220 71L222 82L212.5 77L203 82L205 71L197 63.5Z" fill="#E5E7EB"/>
</svg>
