<svg width="280" height="140" viewBox="0 0 280 140" fill="none" xmlns="http://www.w3.org/2000/svg">
<rect width="280" height="140" fill="white"/>
<circle cx="53" cy="70" r="13" fill="#E5E7EB"/>
<path fill-rule="evenodd" clip-rule="evenodd" d="M53.0009 71.0827C55.3941 71.0827 57.3342 69.1426 57.3342 66.7493C57.3342 64.3561 55.3941 62.416 53.0009 62.416C50.6077 62.416 48.6676 64.3561 48.6676 66.7493C48.6676 69.1426 50.6077 71.0827 53.0009 71.0827ZM53.0037 73.2502C48.88 73.2502 45.115 74.7862 42.2498 77.3173C44.5901 80.748 48.5303 83.0002 52.9965 83.0002C57.4661 83.0002 61.4089 80.7445 63.7486 77.3094C60.8845 74.783 57.1231 73.2502 53.0037 73.2502Z" fill="#9FA6B2"/>
<rect x="75" y="60" width="76" height="3" rx="1.5" fill="#6B7280"/>
<rect x="75" y="68" width="160" height="2" rx="1" fill="#D2D6DC"/>
<rect x="75" y="73" width="164" height="2" rx="1" fill="#D2D6DC"/>
<rect x="75" y="78" width="132" height="2" rx="1" fill="#D2D6DC"/>
</svg>
