<?xml version="1.0" encoding="UTF-8"?>
<svg width="280px" height="140px" viewBox="0 0 280 140" version="1.1" xmlns="http://www.w3.org/2000/svg" xmlns:xlink="http://www.w3.org/1999/xlink">
    <title>Group</title>
    <g id="Page-1" stroke="none" stroke-width="1" fill="none" fill-rule="evenodd">
        <g id="Group" fill-rule="nonzero">
            <g id="space" fill="#F4F5F7">
                <rect id="Rectangle" x="0" y="0" width="280" height="140"></rect>
            </g>
            <g id="space" transform="translate(67.000000, 30.000000)">
                <path d="M0,0 L66.8181818,0 L66.8181818,33.3333333 L0,33.3333333 L0,0 Z M0,46.6666667 L66.8181818,46.6666667 L66.8181818,80 L0,80 L0,46.6666667 Z M80.1818182,0 L147,0 L147,33.3333333 L80.1818182,33.3333333 L80.1818182,0 Z M80.1818182,46.6666667 L147,46.6666667 L147,80 L80.1818182,80 L80.1818182,46.6666667 Z" id="Shape" fill="#E2E2E2"></path>
                <path d="M80.0829268,19.408 L79.6634146,19.408 L79.6634146,16.912 L67.497561,16.912 L67.497561,19.408 L67.0780488,19.408 L67.0780488,14 L67.497561,14 L67.497561,16.496 L79.6634146,16.496 L79.6634146,14 L80.0829268,14 L80.0829268,19.408 Z M80.0829268,66 L79.6634146,66 L79.6634146,63.504 L67.497561,63.504 L67.497561,66 L67.0780488,66 L67.0780488,60.592 L67.497561,60.592 L67.497561,63.088 L79.6634146,63.088 L79.6634146,60.592 L80.0829268,60.592 L80.0829268,66 Z M31,46.032 L31,45.616 L33.5170732,45.616 L33.5170732,33.552 L31,33.552 L31,33.136 L36.4536585,33.136 L36.4536585,33.552 L33.9365854,33.552 L33.9365854,45.616 L36.4536585,45.616 L36.4536585,46.032 L31,46.032 Z M111.546341,46.032 L111.546341,45.616 L114.063415,45.616 L114.063415,33.552 L111.546341,33.552 L111.546341,33.136 L117,33.136 L117,33.552 L114.482927,33.552 L114.482927,45.616 L117,45.616 L117,46.032 L111.546341,46.032 Z" id="Shape" fill="#656667"></path>
            </g>
        </g>
    </g>
</svg>