<svg width="280" height="140" viewBox="0 0 280 140" fill="none" xmlns="http://www.w3.org/2000/svg">
<rect width="280" height="140" fill="white"/>
<rect width="280" height="140" fill="white"/>
<rect x="36" y="55" width="59" height="30" rx="6" fill="#F4F5F7"/>
<path d="M48.5568 66.3643H51.7038V75H53.5334V66.3643H56.6804V64.8182H48.5568V66.3643ZM59.2503 75.1541C60.4484 75.1541 61.1643 74.5923 61.4925 73.951H61.5521V75H63.2822V69.8892C63.2822 67.8707 61.6366 67.2642 60.18 67.2642C58.5741 67.2642 57.3412 67.9801 56.9435 69.3722L58.6239 69.6108C58.8028 69.0888 59.3099 68.6413 60.1899 68.6413C61.0251 68.6413 61.4825 69.0689 61.4825 69.8196V69.8494C61.4825 70.3665 60.9406 70.3913 59.5933 70.5355C58.1118 70.6946 56.6949 71.1371 56.6949 72.8572C56.6949 74.3587 57.7936 75.1541 59.2503 75.1541ZM59.7176 73.8317C58.9669 73.8317 58.43 73.4886 58.43 72.8274C58.43 72.1364 59.0315 71.848 59.8369 71.7337C60.3092 71.669 61.2538 71.5497 61.4875 71.3608V72.2607C61.4875 73.1108 60.8014 73.8317 59.7176 73.8317ZM65.0964 75H66.8663V73.7969H66.9707C67.2541 74.3537 67.8457 75.1342 69.1582 75.1342C70.958 75.1342 72.3053 73.7074 72.3053 71.1918C72.3053 68.6463 70.9182 67.2642 69.1533 67.2642C67.806 67.2642 67.2442 68.0746 66.9707 68.6264H66.8962V64.8182H65.0964V75ZM66.8614 71.1818C66.8614 69.7003 67.4977 68.7408 68.6561 68.7408C69.8543 68.7408 70.4707 69.7599 70.4707 71.1818C70.4707 72.6136 69.8443 73.6577 68.6561 73.6577C67.5077 73.6577 66.8614 72.6634 66.8614 71.1818ZM81.2794 64.8182H79.5244L76.9939 66.4439V68.1342L79.3752 66.6129H79.4349V75H81.2794V64.8182Z" fill="#374151"/>
<path d="M120.557 66.3643H123.704V75H125.533V66.3643H128.68V64.8182H120.557V66.3643ZM131.25 75.1541C132.448 75.1541 133.164 74.5923 133.492 73.951H133.552V75H135.282V69.8892C135.282 67.8707 133.637 67.2642 132.18 67.2642C130.574 67.2642 129.341 67.9801 128.943 69.3722L130.624 69.6108C130.803 69.0888 131.31 68.6413 132.19 68.6413C133.025 68.6413 133.483 69.0689 133.483 69.8196V69.8494C133.483 70.3665 132.941 70.3913 131.593 70.5355C130.112 70.6946 128.695 71.1371 128.695 72.8572C128.695 74.3587 129.794 75.1541 131.25 75.1541ZM131.718 73.8317C130.967 73.8317 130.43 73.4886 130.43 72.8274C130.43 72.1364 131.032 71.848 131.837 71.7337C132.309 71.669 133.254 71.5497 133.488 71.3608V72.2607C133.488 73.1108 132.801 73.8317 131.718 73.8317ZM137.096 75H138.866V73.7969H138.971C139.254 74.3537 139.846 75.1342 141.158 75.1342C142.958 75.1342 144.305 73.7074 144.305 71.1918C144.305 68.6463 142.918 67.2642 141.153 67.2642C139.806 67.2642 139.244 68.0746 138.971 68.6264H138.896V64.8182H137.096V75ZM138.861 71.1818C138.861 69.7003 139.498 68.7408 140.656 68.7408C141.854 68.7408 142.471 69.7599 142.471 71.1818C142.471 72.6136 141.844 73.6577 140.656 73.6577C139.508 73.6577 138.861 72.6634 138.861 71.1818ZM149.138 75H156.118V73.4588H151.683V73.3892L153.438 71.6044C155.417 69.7053 155.964 68.7805 155.964 67.6321C155.964 65.9268 154.577 64.679 152.529 64.679C150.51 64.679 149.078 65.9318 149.078 67.8658H150.833C150.833 66.8267 151.49 66.1754 152.504 66.1754C153.473 66.1754 154.194 66.767 154.194 67.7266C154.194 68.5767 153.677 69.1832 152.673 70.2024L149.138 73.6676V75Z" fill="#6B7280"/>
<path d="M193.557 66.3643H196.704V75H198.533V66.3643H201.68V64.8182H193.557V66.3643ZM204.25 75.1541C205.448 75.1541 206.164 74.5923 206.492 73.951H206.552V75H208.282V69.8892C208.282 67.8707 206.637 67.2642 205.18 67.2642C203.574 67.2642 202.341 67.9801 201.943 69.3722L203.624 69.6108C203.803 69.0888 204.31 68.6413 205.19 68.6413C206.025 68.6413 206.483 69.0689 206.483 69.8196V69.8494C206.483 70.3665 205.941 70.3913 204.593 70.5355C203.112 70.6946 201.695 71.1371 201.695 72.8572C201.695 74.3587 202.794 75.1541 204.25 75.1541ZM204.718 73.8317C203.967 73.8317 203.43 73.4886 203.43 72.8274C203.43 72.1364 204.032 71.848 204.837 71.7337C205.309 71.669 206.254 71.5497 206.488 71.3608V72.2607C206.488 73.1108 205.801 73.8317 204.718 73.8317ZM210.096 75H211.866V73.7969H211.971C212.254 74.3537 212.846 75.1342 214.158 75.1342C215.958 75.1342 217.305 73.7074 217.305 71.1918C217.305 68.6463 215.918 67.2642 214.153 67.2642C212.806 67.2642 212.244 68.0746 211.971 68.6264H211.896V64.8182H210.096V75ZM211.861 71.1818C211.861 69.7003 212.498 68.7408 213.656 68.7408C214.854 68.7408 215.471 69.7599 215.471 71.1818C215.471 72.6136 214.844 73.6577 213.656 73.6577C212.508 73.6577 211.861 72.6634 211.861 71.1818ZM225.792 75.1392C227.97 75.1392 229.556 73.8913 229.551 72.1712C229.556 70.8984 228.76 69.9837 227.333 69.7798V69.7003C228.437 69.4616 229.178 68.6413 229.173 67.4979C229.178 65.9467 227.855 64.679 225.822 64.679C223.843 64.679 222.312 65.8572 222.272 67.5625H224.047C224.077 66.7074 224.872 66.1754 225.812 66.1754C226.762 66.1754 227.393 66.7521 227.388 67.6072C227.393 68.4972 226.657 69.0888 225.603 69.0888H224.703V70.5107H225.603C226.891 70.5107 227.656 71.157 227.652 72.0767C227.656 72.9766 226.876 73.593 225.787 73.593C224.763 73.593 223.973 73.0611 223.928 72.2308H222.058C222.108 73.951 223.644 75.1392 225.792 75.1392Z" fill="#6B7280"/>
</svg>
