<svg width="280" height="140" viewBox="0 0 280 140" fill="none" xmlns="http://www.w3.org/2000/svg">
<rect width="280" height="140" fill="#F4F5F7"/>
<rect x="40" y="24" width="84" height="92" rx="6" fill="white" stroke="#D2D6DC"/>
<rect x="156" y="24" width="84" height="92" rx="6" fill="white" stroke="#D2D6DC"/>
<rect x="50" y="36" width="48" height="6" rx="2" fill="#4B5563"/>
<rect x="50" y="50" width="40" height="4" rx="2" fill="#9FA6B2"/>
<rect x="50" y="60" width="44" height="4" rx="2" fill="#9FA6B2"/>
<rect x="50" y="70" width="36" height="4" rx="2" fill="#9FA6B2"/>
<rect x="50" y="80" width="42" height="4" rx="2" fill="#D2D6DC"/>
<rect x="166" y="36" width="48" height="6" rx="2" fill="#4B5563"/>
<rect x="166" y="50" width="38" height="4" rx="2" fill="#9FA6B2"/>
<rect x="166" y="60" width="42" height="4" rx="2" fill="#9FA6B2"/>
<path d="M130 60L140 55L140 65Z" fill="#4B5563"/>
<path d="M150 76L140 81L140 71Z" fill="#9FA6B2"/>
</svg>
