<svg width="280" height="140" viewBox="0 0 280 140" fill="none" xmlns="http://www.w3.org/2000/svg">
<rect width="280" height="140" fill="#F4F5F7"/>
<path d="M98 30L98 50L110 50" stroke="#D2D6DC" stroke-width="1.5"/>
<path d="M98 50L98 76L110 76" stroke="#D2D6DC" stroke-width="1.5"/>
<path d="M98 76L98 102L110 102" stroke="#D2D6DC" stroke-width="1.5"/>
<path d="M130 76L130 90L142 90" stroke="#D2D6DC" stroke-width="1.5"/>
<rect x="80" y="22" width="14" height="14" rx="3" fill="#4B5563"/>
<path d="M84 29L87 32L93 26" stroke="white" stroke-width="1.5" stroke-linecap="round" stroke-linejoin="round"/>
<rect x="112" y="44" width="50" height="8" rx="2" fill="#4B5563"/>
<rect x="112" y="70" width="20" height="14" rx="3" fill="#9FA6B2"/>
<path d="M118 74L122 78L118 82" stroke="white" stroke-width="1.5" stroke-linecap="round" stroke-linejoin="round"/>
<rect x="136" y="70" width="44" height="8" rx="2" fill="#9FA6B2"/>
<rect x="144" y="84" width="40" height="8" rx="2" fill="#D2D6DC"/>
<rect x="112" y="96" width="46" height="8" rx="2" fill="#9FA6B2"/>
</svg>
