<?xml version="1.0" encoding="UTF-8"?>
<svg width="70px" height="72px" viewBox="0 0 70 72" version="1.1" xmlns="http://www.w3.org/2000/svg" xmlns:xlink="http://www.w3.org/1999/xlink">
    <!-- Generator: Sketch 52.2 (67145) - http://www.bohemiancoding.com/sketch -->
    <title>logo</title>
    <desc>Created with Sketch.</desc>
    <g id="Page-1" stroke="none" stroke-width="1" fill="none" fill-rule="evenodd">
        <g id="logo" fill="#9C27B0" fill-rule="nonzero">
            <path d="M55.4,26.7 C52.9327352,26.6932438 50.565923,27.6767137 48.83,29.43 L46.44,31.82 L32.61,18 C31.9752254,17.3659139 31.6159311,16.5072005 31.61,15.61 C31.6126041,14.7162855 31.9722101,13.8606622 32.6088418,13.2334203 C33.2454736,12.6061784 34.1063455,12.2593249 35,12.27 C36.883291,12.27 38.41,13.796709 38.41,15.68 C38.4247694,16.5813039 38.0622292,17.447775 37.41,18.07 C37.2434915,18.2251103 37.1489275,18.4424384 37.1489275,18.67 C37.1489275,18.8975616 37.2434915,19.1148897 37.41,19.27 L40.41,22.27 C40.5648403,22.4332794 40.7799763,22.5257527 41.005,22.5257527 C41.2300237,22.5257527 41.4451597,22.4332794 41.6,22.27 C43.360553,20.5348664 44.3451053,18.1618429 44.33,15.69 C44.3300001,12.36743 42.5574301,9.29724862 39.6800001,7.63596358 C36.80257,5.97467854 33.25743,5.97467854 30.3799999,7.63596358 C27.5025699,9.29724862 25.7299999,12.36743 25.73,15.69 C25.7148947,18.1618429 26.699447,20.5348664 28.46,22.27 L30.85,24.66 L17,38.39 C16.3561137,39.0100185 15.5035721,39.3667305 14.61,39.39 C12.7488004,39.3679086 11.2579086,37.8411996 11.28,35.98 C11.3020914,34.1188004 12.8288004,32.6279086 14.69,32.65 C15.5920149,32.6315121 16.459924,32.994654 17.08,33.65 C17.2365935,33.8138299 17.4533687,33.906502 17.68,33.906502 C17.9066313,33.906502 18.1234065,33.8138299 18.28,33.65 L21.28,30.65 C21.6105604,30.3182938 21.6105604,29.7817062 21.28,29.45 C19.5422835,27.6932837 17.1709511,26.709433 14.7,26.72 C9.67968945,26.8846003 5.69508196,31.0019918 5.69508196,36.025 C5.69508196,41.0480082 9.67968945,45.1653997 14.7,45.33 L14.79,45.33 C17.2301922,45.3187515 19.5654936,44.3364136 21.28,42.6 L23.67,40.21 L37.48,54.1 C38.0975685,54.7454936 38.4538658,55.5970443 38.48,56.49 C38.4747976,57.3854963 38.111276,58.2416315 37.470583,58.8672937 C36.8298899,59.4929558 35.9653675,59.8360541 35.07,59.82 C33.1834658,59.8145079 31.6554921,58.2865342 31.65,56.4 C31.6340002,55.49846 31.9967389,54.6315145 32.65,54.01 C32.8132794,53.8551597 32.9057527,53.6400237 32.9057527,53.415 C32.9057527,53.1899763 32.8132794,52.9748403 32.65,52.82 L29.65,49.82 C29.4934065,49.6561701 29.2766313,49.563498 29.05,49.563498 C28.8233687,49.563498 28.6065935,49.6561701 28.45,49.82 C26.6928982,51.5533541 25.7087314,53.9218435 25.72,56.39 C25.6086196,59.787101 27.3573796,62.9749226 30.2821942,64.7064422 C33.2070088,66.4379619 36.8429912,66.4379619 39.7678058,64.7064422 C42.6926204,62.9749226 44.4413804,59.787101 44.33,56.39 L44.33,56.31 C44.3198556,53.8695825 43.3373468,51.5338747 41.6,49.82 L39.21,47.43 L53.1,33.61 C53.7427956,32.9883237 54.596013,32.6313289 55.49,32.61 C56.3819772,32.6152616 57.2350244,32.9760373 57.860102,33.6123776 C58.4851797,34.2487179 58.8306662,35.108071 58.82,36 C58.8144886,37.8849074 57.2849155,39.4100081 55.4,39.41 C54.4991657,39.4223356 53.6336285,39.0601861 53.01,38.41 C52.8551597,38.2467206 52.6400237,38.1542473 52.415,38.1542473 C52.1899763,38.1542473 51.9748403,38.2467206 51.82,38.41 L48.82,41.41 C48.6567206,41.5648403 48.5642473,41.7799763 48.5642473,42.005 C48.5642473,42.2300237 48.6567206,42.4451597 48.82,42.6 C50.5581923,44.3524424 52.9318696,45.3264437 55.4,45.3 C60.5362482,45.3 64.7,41.1362482 64.7,36 C64.7,30.8637518 60.5362482,26.7 55.4,26.7 Z M27.74,36 L35,28.74 L42.26,36 L35,43.26 L27.74,36 Z M27.4,15.6 C27.4110482,12.2802258 29.5755726,9.35177151 32.7460092,8.36721331 C35.9164458,7.38265512 39.359058,8.56985005 41.2486789,11.299384 C43.1382999,14.0289179 43.0376133,17.6690927 41,20.29 L39.2,18.5 C40.2920705,16.9453666 40.4253821,14.9112893 39.5455603,13.2274197 C38.6657385,11.5435502 36.9198496,10.4913552 35.02,10.5 C32.2470765,10.520165 29.9859111,12.7283343 29.9,15.5 C29.8815965,16.8428356 30.404157,18.1366233 31.35,19.09 L45.24,33 L43.45,34.8 L29.62,21 C28.1819596,19.5730997 27.3813819,17.6257488 27.4,15.6 Z M20,41.38 C18.5730997,42.8180404 16.6257488,43.6186181 14.6,43.6 L14.51,43.6 C10.3126359,43.5751472 6.93014719,40.1523641 6.955,35.955 C6.97985281,31.7576359 10.4026359,28.3751472 14.6,28.4 C16.3227209,28.4127584 17.9967408,28.9730997 19.38,30 L17.59,31.8 C15.3997873,30.2255995 12.3616738,30.6331751 10.6638601,32.7291706 C8.9660463,34.8251661 9.19813813,37.8816976 11.1929715,39.697299 C13.1878048,41.5129005 16.2526267,41.4570615 18.18,39.57 L32,25.76 L33.79,27.55 L26,35.4 L23,38.4 L20,41.38 Z M42.62,56.38 C42.606408,59.6950187 40.4456871,62.6187793 37.2806888,63.6048421 C34.1156905,64.5909048 30.6766962,63.4117489 28.7826636,60.6910552 C26.888631,57.9703614 26.9765831,54.3358937 29,51.71 L30.8,53.5 C29.5452928,55.298037 29.5774534,57.6961048 30.8799277,59.4598473 C32.1824021,61.2235899 34.4648691,61.9598695 36.5524758,61.2897016 C38.6400826,60.6195336 40.0675023,58.6922981 40.1,56.5 C40.1184035,55.1571644 39.595843,53.8633767 38.65,52.91 L24.76,39 L26.55,37.21 L34.4,45.06 L40.4,51.06 C41.8158172,52.4755886 42.6077843,54.3979089 42.6,56.4 L42.62,56.38 Z M55.4,43.6 C53.7025712,43.6010419 52.0528744,43.0382456 50.71,42 L52.5,40.2 C54.298037,41.4547072 56.6961048,41.4225466 58.4598473,40.1200723 C60.2235899,38.8175979 60.9598695,36.5351309 60.2897016,34.4475242 C59.6195336,32.3599174 57.6922981,30.9324977 55.5,30.9 C54.1571644,30.8815965 52.8633767,31.404157 51.91,32.35 L38,46.24 L36.2,44.45 L50,30.62 C51.4269003,29.1819596 53.3742512,28.3813819 55.4,28.4 L55.49,28.4 C59.6873641,28.4248528 63.0698528,31.8476359 63.045,36.045 C63.0201472,40.2423641 59.5973641,43.6248528 55.4,43.6 Z" id="Shape"></path>
            <path d="M55.4,21.4 C52.261928,21.3956526 49.2078492,22.4136789 46.7,24.3 C48.5863211,21.7921508 49.6043474,18.738072 49.6,15.6 C49.6144533,9.24770016 45.5199082,3.61503422 39.473062,1.66886543 C33.4262158,-0.277303362 26.8149203,1.90970312 23.121507,7.07793496 C19.4280937,12.2461668 19.5002623,19.2094287 23.3,24.3 C20.7921508,22.4136789 17.738072,21.3956526 14.6,21.4 C6.53664277,21.4000002 3.07671997e-07,27.9366428 3.07671996e-07,36 C3.07671995e-07,44.0633572 6.53664277,50.5999998 14.6,50.6 L14.68,50.6 C17.7912853,50.5906288 20.8157312,49.5731238 23.3,47.7 C21.4136789,50.2078492 20.3956526,53.261928 20.4,56.4 C20.3855467,62.7522998 24.4800918,68.3849658 30.526938,70.3311346 C36.5737842,72.2773034 43.1850797,70.0902969 46.878493,64.922065 C50.5719063,59.7538332 50.4997377,52.7905713 46.7,47.7 C49.2078492,49.5863211 52.261928,50.6043474 55.4,50.6 C59.2716909,50.594571 62.9844764,49.0598572 65.73,46.33 C69.9005883,42.1506666 71.1456924,35.8718704 68.8855359,30.417301 C66.6253794,24.9627316 61.3042877,21.4047057 55.4,21.4 Z M64.54,45.13 C62.1298913,47.5718435 58.8306993,48.9290603 55.4,48.89 C52.3250376,48.892322 49.348798,47.8045773 47,45.82 C46.6355253,45.5453372 46.1247896,45.5793863 45.8,45.9 L44.8,46.9 C44.4819032,47.2207713 44.4437655,47.7250356 44.71,48.09 C47.9712655,51.8917398 48.7240596,57.2429048 46.6382614,61.7968617 C44.5524632,66.3508187 40.0088807,69.2761432 35,69.29 C29.9595853,69.298261 25.3760327,66.3700776 23.2648935,61.7930764 C21.1537544,57.2160751 21.9017656,51.828711 25.18,48 C25.4546628,47.6355253 25.4206137,47.1247896 25.1,46.8 L24.1,45.8 C23.9416554,45.6442323 23.731807,45.5517568 23.51,45.54 C23.3009678,45.5577696 23.0972861,45.6154794 22.91,45.71 C20.5845272,47.7143466 17.6099487,48.8053808 14.54,48.78 L14.46,48.78 C11.070008,48.7907203 7.81620488,47.4467371 5.42192501,45.0468236 C3.02764513,42.6469102 1.69131266,39.3899575 1.71,36 C1.701739,30.9595853 4.62992238,26.3760327 9.20692365,24.2648935 C13.7839249,22.1537544 19.171289,22.9017656 23,26.18 C23.3644747,26.4546628 23.8752104,26.4206137 24.2,26.1 L25.2,25.1 C25.5180968,24.7792287 25.5562345,24.2749644 25.29,23.91 C23.3059911,21.5726228 22.2178309,18.6058798 22.22,15.54 C22.2040288,12.1410679 23.5437558,8.87601119 25.9424933,6.4678889 C28.3412309,4.05976662 31.6010314,2.70730079 35,2.71 C38.4152195,2.72502327 41.6901953,4.07016669 44.13,6.46 C46.5718435,8.8701087 47.9290603,12.1693007 47.89,15.6 C47.892322,18.6749624 46.8045773,21.651202 44.82,24 C44.5453372,24.3644747 44.5793863,24.8752104 44.9,25.2 L45.9,26.2 C46.2207713,26.5180968 46.7250356,26.5562345 47.09,26.29 C49.4154728,24.2856534 52.3900513,23.1946192 55.46,23.22 L55.54,23.22 C62.638476,23.2310375 68.3855284,28.9915176 68.38,36.09 C68.2717353,39.4766775 66.9022164,42.7007533 64.54,45.13 Z" id="Shape"></path>
        </g>
    </g>
</svg>